HIERARCHY
ROOT Hips
{
	OFFSET	0.00	0.00	0.00
	CHANNELS 6 Xposition Yposition Zposition Zrotation Xrotation Yrotation
	JOINT LeftUpLeg
	{
		OFFSET	 0.126116	-0.014019	-0.065224
		CHANNELS 3 Zrotation Xrotation Yrotation
		JOINT LeftLeg
		{
			OFFSET	 0.000000	 0.000000	 0.569914
			CHANNELS 3 Zrotation Xrotation Yrotation
			JOINT LeftFoot
			{
				OFFSET	 0.000000	 0.000000	 0.544423
				CHANNELS 3 Zrotation Xrotation Yrotation
				JOINT LeftToeBase
				{
					OFFSET	 0.000000	 0.000000	 0.207117
					CHANNELS 3 Zrotation Xrotation Yrotation
					End Site
					{
						OFFSET	 0.000000	 0.000000	 0.207117
					}
				}
			}
		}
	}
	JOINT RightUpLeg
	{
		OFFSET	-0.124023	-0.008373	-0.065224
		CHANNELS 3 Zrotation Xrotation Yrotation
		JOINT RightLeg
		{
			OFFSET	 0.000000	 0.000000	 0.570047
			CHANNELS 3 Zrotation Xrotation Yrotation
			JOINT RightFoot
			{
				OFFSET	 0.000000	 0.000000	 0.544354
				CHANNELS 3 Zrotation Xrotation Yrotation
				JOINT RightToeBase
				{
					OFFSET	 0.000000	 0.000000	 0.207540
					CHANNELS 3 Zrotation Xrotation Yrotation
					End Site
					{
						OFFSET	 0.000000	 0.000000	 0.207540
					}
				}
			}
		}
	}
	JOINT Spine
	{
		OFFSET	 0.000184	-0.007763	 0.117403
		CHANNELS 3 Zrotation Xrotation Yrotation
		JOINT Spine1
		{
			OFFSET	 0.000000	 0.000000	 0.137269
			CHANNELS 3 Zrotation Xrotation Yrotation
			JOINT Spine2
			{
				OFFSET	 0.000000	 0.000000	 0.156879
				CHANNELS 3 Zrotation Xrotation Yrotation
				JOINT LeftShoulder
				{
					OFFSET	 0.080501	-0.002496	 0.160144
					CHANNELS 3 Zrotation Xrotation Yrotation
					JOINT LeftArm
					{
						OFFSET	 0.000000	 0.000000	 0.164363
						CHANNELS 3 Zrotation Xrotation Yrotation
						JOINT LeftForeArm
						{
							OFFSET	 0.000000	 0.000000	 0.364576
							CHANNELS 3 Zrotation Xrotation Yrotation
							JOINT LeftHand
							{
								OFFSET	 0.000000	 0.000000	 0.360812
								CHANNELS 3 Zrotation Xrotation Yrotation
								JOINT LeftHandIndex1
								{
									OFFSET	 0.000000	 0.000000	 0.086006
									CHANNELS 3 Zrotation Xrotation Yrotation
									JOINT LeftHandIndex2
									{
										OFFSET	 0.000000	 0.000000	 0.047236
										CHANNELS 3 Zrotation Xrotation Yrotation
										JOINT LeftHandIndex3
										{
											OFFSET	-0.004284	-0.000551	 0.038166
											CHANNELS 3 Zrotation Xrotation Yrotation
											End Site
											{
												OFFSET	-0.004284	-0.000551	 0.038166
											}
										}
									}
								}
							}
						}
					}
				}
				JOINT Neck
				{
					OFFSET	 0.000000	 0.000000	 0.176489
					CHANNELS 3 Zrotation Xrotation Yrotation
					JOINT Head
					{
						OFFSET	 0.000000	-0.001747	 0.077940
						CHANNELS 3 Zrotation Xrotation Yrotation
						End Site
						{
							OFFSET	 0.000000	-0.001747	 0.077940
						}
					}
				}
				JOINT RightShoulder
				{
					OFFSET	-0.080363	 0.000306	 0.159706
					CHANNELS 3 Zrotation Xrotation Yrotation
					JOINT RightArm
					{
						OFFSET	 0.000000	 0.000000	 0.164196
						CHANNELS 3 Zrotation Xrotation Yrotation
						JOINT RightForeArm
						{
							OFFSET	 0.000000	 0.000000	 0.365611
							CHANNELS 3 Zrotation Xrotation Yrotation
							JOINT RightHand
							{
								OFFSET	 0.000000	 0.000000	 0.360648
								CHANNELS 3 Zrotation Xrotation Yrotation
								JOINT RightHandIndex1
								{
									OFFSET	 0.000000	 0.000000	 0.069977
									CHANNELS 3 Zrotation Xrotation Yrotation
									JOINT RightHandIndex2
									{
										OFFSET	 0.000000	 0.000000	 0.052305
										CHANNELS 3 Zrotation Xrotation Yrotation
										JOINT RightHandIndex3
										{
											OFFSET	 0.009002	-0.000782	 0.042196
											CHANNELS 3 Zrotation Xrotation Yrotation
											End Site
											{
												OFFSET	 0.009002	-0.000782	 0.042196
											}
										}
									}
								}
							}
						}
					}
				}
			}
		}
	}
}
MOTION
Frames:    9
Frame Time: 0.03333334
-0.929743	 1.402153	-0.356400	 73.403760	 3.918710	-0.948595	 9.951425	 16.981970	-176.340400	-6.132023	-11.623660	 1.542001	-21.273620	 89.266450	 24.761470	-2.299345	 39.887150	-0.272609	 3.935561	-45.829750	 179.363900	-0.725997	-45.170060	 3.299955	-177.344300	 83.361950	-178.641500	 2.406062	 20.462480	-0.163908	-2.025478	 1.936825	 2.708447	-2.744332	-5.817028	 0.986021	-2.924387	-9.929578	-1.068586	-91.776180	 78.527400	 180.000000	 45.772000	 63.954720	-61.085100	-7.079454	-5.183362	-29.140190	 5.658559	-2.103535	-5.366336	-3.812334	 37.924440	-2.927599	-2.450526	 36.184240	 0.754587	-1.378229	 35.397820	-2.634230	-0.124998	 5.072875	-2.341583	-0.537831	-24.090560	-2.714489	 89.782100	 78.203850	-180.000000	-36.239650	 75.541840	 39.958380	 3.952604	-7.335165	 21.057560	-15.571250	-3.276209	 9.543848	 6.437017	 35.671460	-0.771858	 2.830251	 35.756010	-7.813440	-2.350882	 35.473990	 5.254307
-0.911673	 1.399261	-0.362284	 70.600230	 4.038391	-0.931713	 9.647448	 17.668210	-176.280600	-5.916680	-11.624520	 1.535723	-14.531060	 89.134980	 17.983920	-2.287024	 40.941980	-0.301174	 4.335035	-45.847710	 179.908900	-0.527861	-42.802930	 3.402646	-176.796400	 83.968570	-178.761000	 2.397949	 24.679070	-0.078414	-2.133512	 2.028576	 2.729902	-2.834921	-5.627739	 0.942737	-2.962501	-9.642717	-1.103451	-91.776180	 78.527400	 180.000000	 41.960810	 62.134570	-57.204390	-6.573485	-4.577736	-27.266940	 4.912809	-2.109647	-5.364659	-3.812334	 37.924440	-2.927599	-2.450526	 36.184240	 0.754587	-1.378229	 35.397820	-2.634230	-0.207968	 4.919412	-2.345062	-0.576202	-23.426230	-2.690081	 89.782090	 78.203890	-180.000000	-30.689340	 73.054970	 34.440650	 3.937404	-6.519200	 19.941390	-14.316860	-3.280204	 9.541069	 6.437017	 35.671460	-0.771858	 2.830251	 35.756010	-7.813440	-2.350882	 35.473990	 5.254307
-0.891039	 1.392345	-0.363531	 71.122340	 4.133339	-1.122806	 9.331047	 18.534310	-176.324600	-5.627645	-11.624700	 1.534604	-8.033365	 88.906570	 11.478550	-2.270382	 42.256690	-0.337870	 4.606379	-45.639250	-179.566400	-0.092908	-42.191330	 3.745720	-176.133100	 84.803600	-178.991200	 2.385392	 28.222140	-0.003605	-2.299353	 1.905889	 2.698538	-2.968982	-5.675654	 0.853874	-3.054744	-9.632128	-1.152370	-91.776180	 78.527400	-180.000000	 42.790060	 62.364780	-58.094430	-6.386611	-4.559953	-26.280060	 5.178073	-2.119086	-5.362115	-3.812334	 37.924440	-2.927599	-2.450526	 36.184240	 0.754587	-1.378229	 35.397820	-2.634230	-0.304184	 5.080266	-2.301893	-0.650074	-23.669170	-2.712389	 89.782120	 78.203870	 180.000000	-30.215830	 73.261160	 33.602960	 3.890831	-6.440355	 19.535370	-14.457080	-3.285401	 9.537328	 6.437017	 35.671460	-0.771858	 2.830251	 35.756010	-7.813440	-2.350882	 35.473990	 5.254307
-0.872064	 1.385620	-0.363178	 71.490390	 4.217801	-1.242598	 9.090801	 19.328540	-176.452500	-5.344026	-11.624070	 1.539402	-3.301250	 88.574130	 6.773449	-2.253880	 43.455790	-0.372492	 4.842828	-45.416570	-179.198700	 0.187767	-42.078960	 4.025233	-175.594400	 85.555120	-179.240200	 2.377414	 29.903170	 0.033110	-2.450005	 1.811743	 2.622951	-3.063351	-5.723498	 0.772023	-3.089631	-9.599841	-1.190475	-91.776180	 78.527400	 180.000000	 43.455300	 62.704830	-58.694840	-6.314209	-4.529328	-25.359980	 5.421793	-2.128411	-5.359343	-3.812334	 37.924440	-2.927599	-2.450526	 36.184240	 0.754587	-1.378229	 35.397820	-2.634230	-0.384496	 5.192132	-2.294253	-0.709016	-23.772700	-2.690613	 89.782120	 78.203870	 180.000000	-29.644630	 73.502640	 32.766310	 3.952705	-6.376732	 19.211660	-14.588280	-3.291094	 9.533028	 6.437017	 35.671460	-0.771858	 2.830251	 35.756010	-7.813440	-2.350882	 35.473990	 5.254307
-0.851313	 1.378011	-0.364508	 71.853200	 4.324080	-1.342214	 8.872631	 20.182920	-176.658700	-5.019400	-11.622710	 1.549847	 0.330755	 88.031190	 3.205647	-2.232242	 44.896620	-0.415678	 5.083643	-45.066480	-178.856400	 0.501246	-42.311060	 4.373743	-175.557300	 86.344680	-178.993900	 2.376108	 30.153980	 0.038659	-2.629296	 1.676151	 2.512815	-3.160569	-5.790193	 0.670198	-3.123478	-9.566479	-1.230427	-91.776180	 78.527400	-180.000000	 44.114480	 63.173190	-59.223640	-6.329583	-4.484164	-24.372890	 5.683575	-2.140201	-5.355719	-3.812334	 37.924440	-2.927599	-2.450526	 36.184240	 0.754587	-1.378229	 35.397820	-2.634230	-0.468904	 5.187033	-2.267799	-0.763802	-23.750570	-2.637358	 89.782090	 78.203830	-180.000000	-29.021880	 73.769640	 31.880410	 4.052202	-6.313408	 18.906320	-14.725230	-3.297242	 9.528063	 6.437017	 35.671460	-0.771858	 2.830251	 35.756010	-7.813440	-2.350882	 35.473990	 5.254307
-0.829967	 1.370018	-0.365850	 72.182920	 4.437431	-1.428123	 8.685941	 21.044540	-176.922200	-4.670597	-11.620630	 1.565533	 2.610825	 87.238130	 1.029257	-2.204818	 46.547810	-0.467527	 5.283442	-44.618380	-178.552500	 0.976468	-42.822850	 4.855074	-175.441200	 87.262540	-178.753800	 2.380035	 29.380710	 0.021603	-2.828597	 1.526284	 2.374009	-3.250183	-5.874335	 0.568536	-3.134341	-9.543137	-1.272332	-91.776180	 78.527380	-180.000000	 44.670810	 63.757890	-59.535990	-6.436512	-4.428277	-23.395780	 5.946646	-2.154130	-5.351276	-3.812334	 37.924440	-2.927599	-2.450526	 36.184240	 0.754587	-1.378229	 35.397820	-2.634230	-0.550950	 5.103718	-2.229663	-0.810118	-23.633860	-2.551327	 89.782090	 78.203830	-180.000000	-28.366290	 74.038570	 30.965190	 4.181551	-6.251797	 18.637560	-14.852820	-3.303243	 9.523174	 6.437017	 35.671460	-0.771858	 2.830251	 35.756010	-7.813440	-2.350882	 35.473990	 5.254307
-0.806275	 1.360895	-0.366327	 72.495000	 4.514842	-1.485668	 8.526245	 21.975400	-177.285200	-4.266262	-11.617600	 1.588071	 4.005131	 86.039180	-0.204872	-2.169410	 48.446500	-0.530681	 5.293449	-44.062690	-178.457500	 2.054468	-43.597240	 5.715394	-174.403100	 88.547070	-179.131300	 2.381006	 29.181130	 0.017233	-3.066333	 1.365526	 2.150805	-3.331343	-5.987549	 0.467872	-3.103049	-9.545610	-1.319663	-91.776180	 78.527400	 180.000000	 45.088790	 64.527270	-59.516460	-6.653315	-4.358897	-22.372700	 6.230108	-2.170802	-5.345804	-3.812334	 37.924440	-2.927599	-2.450526	 36.184240	 0.754587	-1.378229	 35.397820	-2.634230	-0.637195	 4.978167	-2.176871	-0.854505	-23.442170	-2.436778	 89.782120	 78.203870	 180.000000	-27.597430	 74.322930	 29.903980	 4.352987	-6.184630	 18.386170	-14.972910	-3.309011	 9.518457	 6.437017	 35.671460	-0.771858	 2.830251	 35.756010	-7.813440	-2.350882	 35.473990	 5.254307
-0.783171	 1.351840	-0.366053	 72.723520	 4.494658	-1.471216	 8.452241	 22.854300	-177.730400	-3.860307	-11.613350	 1.619301	 4.707365	 84.504670	-0.680022	-2.131152	 50.263230	-0.595156	 4.982902	-43.520750	-178.657800	 3.721721	-44.468280	 6.872545	 8.715585	 89.860120	-1.390554	 2.376154	 30.144110	 0.038438	-3.289177	 1.222984	 1.834091	-3.370460	-6.105371	 0.369651	-3.049464	-9.579617	-1.345515	-91.776180	 78.527400	-180.000000	 45.301100	 65.374290	-59.184100	-6.957763	-4.287391	-21.451170	 6.497153	-2.187174	-5.340069	-3.812334	 37.924440	-2.927599	-2.450526	 36.184240	 0.754587	-1.378229	 35.397820	-2.634230	-0.721403	 4.870703	-2.115835	-0.901826	-23.235730	-2.314824	 89.782120	 78.203870	 180.000000	-26.785720	 74.579080	 28.788760	 4.545340	-6.117988	 18.183640	-15.063000	-3.313353	 9.515041	 6.437017	 35.671460	-0.771858	 2.830251	 35.756010	-7.813440	-2.350882	 35.473990	 5.254307
-0.758409	 1.342121	-0.365023	 72.882900	 4.442407	-1.392885	 8.482409	 23.766260	-178.260000	-3.472057	-11.607620	 1.660253	 5.034802	 82.426740	-0.692718	-2.092470	 51.903250	-0.657251	 4.488011	-42.867970	-179.003300	 5.460235	-45.357230	 8.023298	 7.338100	 88.220830	 0.767167	 2.370953	 31.087640	 0.059511	-3.481501	 1.053351	 1.431607	-3.353648	-6.222243	 0.253763	-3.004251	-9.631956	-1.331631	-91.776180	 78.527400	-180.000000	 45.306850	 66.360690	-58.523100	-7.399142	-4.203508	-20.567020	 6.750036	-2.204016	-5.333935	-3.812334	 37.924440	-2.927599	-2.450526	 36.184240	 0.754587	-1.378229	 35.397820	-2.634230	-0.815012	 4.813663	-2.041177	-0.945233	-23.077000	-2.150500	 89.782090	 78.203830	-180.000000	-25.850650	 74.822330	 27.503670	 4.773928	-6.043983	 18.009990	-15.126320	-3.316374	 9.512633	 6.437017	 35.671460	-0.771858	 2.830251	 35.756010	-7.813440	-2.350882	 35.473990	 5.254307
